<svg width="200px"  height="200px"  xmlns="http://www.w3.org/2000/svg" viewBox="0 0 100 100" preserveAspectRatio="xMidYMid" class="lds-wedges" style="background: none;"><g transform="translate(50,50)"><g ng-attr-transform="scale({{config.scale}})" transform="scale(0.7)"><g transform="translate(-50,-50)"><g transform="rotate(215.559 50 50)"><animateTransform attributeName="transform" type="rotate" calcMode="linear" values="0 50 50;360 50 50" keyTimes="0;1" dur="0.5s" begin="0s" repeatCount="indefinite"></animateTransform><path ng-attr-fill-opacity="{{config.opacity}}" ng-attr-fill="{{config.c1}}" d="M50 50L50 0A50 50 0 0 1 100 50Z" fill-opacity="0.9" fill="#b3ffe0"></path></g><g transform="rotate(341.67 50 50)"><animateTransform attributeName="transform" type="rotate" calcMode="linear" values="0 50 50;360 50 50" keyTimes="0;1" dur="0.6666666666666666s" begin="0s" repeatCount="indefinite"></animateTransform><path ng-attr-fill-opacity="{{config.opacity}}" ng-attr-fill="{{config.c2}}" d="M50 50L50 0A50 50 0 0 1 100 50Z" transform="rotate(90 50 50)" fill-opacity="0.9" fill="#00995c"></path></g><g transform="rotate(107.78 50 50)"><animateTransform attributeName="transform" type="rotate" calcMode="linear" values="0 50 50;360 50 50" keyTimes="0;1" dur="1s" begin="0s" repeatCount="indefinite"></animateTransform><path ng-attr-fill-opacity="{{config.opacity}}" ng-attr-fill="{{config.c3}}" d="M50 50L50 0A50 50 0 0 1 100 50Z" transform="rotate(180 50 50)" fill-opacity="0.9" fill="#808080"></path></g><g transform="rotate(233.89 50 50)"><animateTransform attributeName="transform" type="rotate" calcMode="linear" values="0 50 50;360 50 50" keyTimes="0;1" dur="2s" begin="0s" repeatCount="indefinite"></animateTransform><path ng-attr-fill-opacity="{{config.opacity}}" ng-attr-fill="{{config.c4}}" d="M50 50L50 0A50 50 0 0 1 100 50Z" transform="rotate(270 50 50)" fill-opacity="0.9" fill="#d9d9d9"></path></g></g></g></g></svg>